<svg
      xmlns="http://www.w3.org/2000/svg"
      viewBox="0 -36 512.001 512"
    >
      <defs />
      <path d="M256 219.988c5.52 0 10-4.48 10-10s-4.48-10-10-10-10 4.48-10 10 4.48 10 10 10zm0 0" />
      <path d="M472 139.988h-59.137L321.895 14.836c-8.172-14.004-26.172-18.988-40.47-11.07-14.491 8.05-19.702 26.304-11.648 40.8.23.41.485.805.77 1.18l71.351 94.242H170.102l71.351-94.242c.281-.375.54-.77.77-1.18 8.035-14.46 2.882-32.73-11.66-40.808-14.266-7.903-32.266-2.922-40.454 11.07l-90.972 125.16H40c-22.055 0-40 17.946-40 40 0 17.395 11.29 32.54 27.191 37.899a9.956 9.956 0 006.118 2.101c.46 0 .894.028 1.347.09a9.971 9.971 0 018.496 8.117l34.02 187.164c2.598 14.27 15.012 24.63 29.52 24.63h298.617c14.507 0 26.921-10.36 29.52-24.634L468.847 228.2a9.976 9.976 0 018.515-8.12c.438-.063.871-.09 1.328-.09 2.32 0 4.454-.798 6.149-2.126 15.914-5.394 27.16-20.511 27.16-37.875 0-22.054-17.945-40-40-40zM286.988 34.328c-2.285-4.73-.511-10.492 4.137-13.07 4.84-2.684 10.941-.953 13.61 3.855.195.36.417.703.656 1.032l82.746 113.843H366.98zm-80.379-8.18c.239-.328.454-.668.653-1.02 2.676-4.812 8.781-6.546 13.601-3.878 4.657 2.586 6.438 8.34 4.149 13.078l-79.992 105.66h-21.157zM472 199.988H296c-5.523 0-10 4.477-10 10 0 5.524 4.477 9.899 10 9.899h154.398a30.359 30.359 0 00-1.226 4.633l-34.024 187.257a9.995 9.995 0 01-9.84 8.211H106.692a10 10 0 01-9.843-8.207l-34.02-187.164a30.19 30.19 0 00-1.226-4.629H216c5.523 0 10-4.476 10-10 0-5.523-4.477-10-10-10H40c-11.121 0-20-9.062-20-20 0-11.027 8.973-20 20-20h432c11.027 0 20 8.973 20 20 0 11.106-9.086 20-20 20zm0 0" />
      <path d="M256 249.988c-16.543 0-30 13.457-30 30v80c0 16.543 13.457 30 30 30s30-13.457 30-30v-80c0-16.574-13.426-30-30-30zm10 110c0 5.516-4.484 10-10 10s-10-4.484-10-10v-80c0-5.515 4.484-10 10-10 5.52 0 10 4.48 10 10zm0 0M356 389.988c16.543 0 30-13.457 30-30v-80c0-16.574-13.426-30-30-30-16.543 0-30 13.457-30 30v80c0 16.543 13.457 30 30 30zm-10-110c0-5.515 4.484-10 10-10 5.52 0 10 4.48 10 10v80c0 5.516-4.484 10-10 10s-10-4.484-10-10zm0 0M156 249.988c-16.543 0-30 13.457-30 30v80c0 16.543 13.457 30 30 30s30-13.457 30-30v-80c0-16.574-13.426-30-30-30zm10 110c0 5.516-4.484 10-10 10s-10-4.484-10-10v-80c0-5.515 4.484-10 10-10 5.52 0 10 4.477 10 10zm0 0" />
    </svg>