<svg
      xmlns="http://www.w3.org/2000/svg"
      viewBox="0 0 64 64"
    >
      <defs />
      <path fill="#b39a7c" d="M56 43H8l2-40h44z" />
      <path
        fill="#f3ac3c"
        d="M45 30h-3v5a2 2 0 01-4 0v-5h-4v2a2 2 0 01-4 0v-2H14l25.37-17.82A30.843 30.843 0 0145 30z"
      />
      <path fill="#806749" d="M13 43h38v8H13z" />
      <path fill="#ec455a" d="M60 56v5H46v-5h12zM18 56v5H4v-5h12z" />
      <path
        fill="#d9ccbc"
        d="M37 43l-.43 1.73A3.014 3.014 0 0133.66 47h-3.32a3.014 3.014 0 01-2.91-2.27L27 43z"
      />
      <path
        fill="#ef8746"
        d="M51 30h-6a30.843 30.843 0 00-5.63-17.82l4.9-3.45A36.8 36.8 0 0151 30z"
      />
      <circle cx="25" cy="28" r="2" fill="#dd5528" />
      <path
        fill="#dd5528"
        d="M35 21a3 3 0 01-3-3 2.82 2.82 0 01.09-.71l3.22-2.27h.01A3 3 0 0135 21z"
      />
      <g fill="#cc7400">
        <path d="M28 23h2v2h-2zM39 22h2v2h-2zM33 26h2v2h-2z" />
      </g>
      <path
        fill="#f09898"
        d="M17 49.47V52l-1 2v2H6l-1-4-1.323-1.98A4.006 4.006 0 013 47.79V38.4a4.15 4.15 0 01.08-.79l1.6-8A2 2 0 016.64 28H7a2 2 0 012 2v11.47a1.55 1.55 0 001.79-.46l1.98-2.47a2.142 2.142 0 013.71 2.01L15.66 43l-.4 1.21a1.982 1.982 0 00.11 1.53l1.42 2.84a1.991 1.991 0 01.21.89zM47 49.47V52l1 2v2h10l1-4 1.33-1.99A3.973 3.973 0 0061 47.8v-9.4a4.15 4.15 0 00-.08-.79l-1.6-8A2 2 0 0057.36 28H57a2 2 0 00-2 2v11.47a1.55 1.55 0 01-1.79-.46l-1.98-2.47a2.142 2.142 0 00-3.71 2.01l.82 2.45.4 1.21a1.982 1.982 0 01-.11 1.53l-1.42 2.84a1.991 1.991 0 00-.21.89z"
      />
    </svg>